<svg aria-hidden="true" focusable="false" data-prefix="far" data-icon="objects-column"
    class="svg-inline--fa fa-objects-column absolute left-1/2 top-1/2 -translate-x-1/2 -translate-y-1/2"
    role="img" xmlns="http://www.w3.org/2000/svg" viewBox="0 0 448 512">
    <path fill="rgb(138 138 138)"
        d="M48 80V240h96V80H48zM0 80C0 53.5 21.5 32 48 32h96c26.5 0 48 21.5 48 48V240c0 26.5-21.5 48-48 48H48c-26.5 0-48-21.5-48-48V80zM304 272V432h96V272H304zm-48 0c0-26.5 21.5-48 48-48h96c26.5 0 48 21.5 48 48V432c0 26.5-21.5 48-48 48H304c-26.5 0-48-21.5-48-48V272zM144 368H48v64h96V368zM48 320h96c26.5 0 48 21.5 48 48v64c0 26.5-21.5 48-48 48H48c-26.5 0-48-21.5-48-48V368c0-26.5 21.5-48 48-48zM304 80v64h96V80H304zm-48 0c0-26.5 21.5-48 48-48h96c26.5 0 48 21.5 48 48v64c0 26.5-21.5 48-48 48H304c-26.5 0-48-21.5-48-48V80z"></path>
</svg>