<svg aria-hidden="true" focusable="false" data-prefix="far" data-icon="indent"
    class="svg-inline--fa fa-indent absolute left-1/2 top-1/2 -translate-x-1/2 -translate-y-1/2"
    role="img" xmlns="http://www.w3.org/2000/svg" viewBox="0 0 448 512">
    <path fill="rgb(138 138 138)"
        d="M0 64C0 77.3 10.7 88 24 88H424c13.3 0 24-10.7 24-24s-10.7-24-24-24H24C10.7 40 0 50.7 0 64zM192 192c0 13.3 10.7 24 24 24H424c13.3 0 24-10.7 24-24s-10.7-24-24-24H216c-13.3 0-24 10.7-24 24zm24 104c-13.3 0-24 10.7-24 24s10.7 24 24 24H424c13.3 0 24-10.7 24-24s-10.7-24-24-24H216zM0 448c0 13.3 10.7 24 24 24H424c13.3 0 24-10.7 24-24s-10.7-24-24-24H24c-13.3 0-24 10.7-24 24zM121 268.4c7.8-6.4 7.8-18.3 0-24.7L26.2 165.6C15.7 157 0 164.4 0 177.9V334.1c0 13.5 15.7 20.9 26.2 12.4L121 268.4z"></path>
</svg>