<svg aria-hidden="true" focusable="false" data-prefix="far" data-icon="square-check"
    class="svg-inline--fa fa-square-check absolute left-1/2 top-1/2 -translate-x-1/2 -translate-y-1/2"
    role="img" xmlns="http://www.w3.org/2000/svg" viewBox="0 0 448 512">
    <path fill="hsl(133 98% 35%)"
        d="M64 80c-8.8 0-16 7.2-16 16V416c0 8.8 7.2 16 16 16H384c8.8 0 16-7.2 16-16V96c0-8.8-7.2-16-16-16H64zM0 96C0 60.7 28.7 32 64 32H384c35.3 0 64 28.7 64 64V416c0 35.3-28.7 64-64 64H64c-35.3 0-64-28.7-64-64V96zM337 209L209 337c-9.4 9.4-24.6 9.4-33.9 0l-64-64c-9.4-9.4-9.4-24.6 0-33.9s24.6-9.4 33.9 0l47 47L303 175c9.4-9.4 24.6-9.4 33.9 0s9.4 24.6 0 33.9z"></path>
</svg>